PathFileType	4	(X/Y/Z)	C:/Users/beibeiliu/ov580/test_trc\sequence.6_training_dense_right.trc
DataRate	CameraRate	NumFrames	NumMarkers	Units	OrigDataRate	OrigDataStartFrame	OrigNumFrames
120	120	8	19	mm	120	79	314
Frame#	Time	ThumbCMC			ThumbMCP			ThumbIP			ThumbTip			IndexMCP			IndexPIP			IndexTip			MiddleMCP			MiddlePIP			MiddleTip			RingMCP			RingPIP			RingTip			PinkyMCP			PinkyPIP			PinkyTip			BackHand1			BackHand2			BackHand3	
		X0	Y0	Z0	X1	Y1	Z1	X2	Y2	Z2	X3	Y3	Z3	X4	Y4	Z4	X5	Y5	Z5	X6	Y6	Z6	X7	Y7	Z7	X8	Y8	Z8	X9	Y9	Z9	X10	Y10	Z10	X11	Y11	Z11	X12	Y12	Z12	X13	Y13	Z13	X14	Y14	Z14	X15	Y15	Z15	X16	Y16	Z16	X17	Y17	Z17	X18	Y18	Z18	
78	0.65	189.771	12.6067	4.61918	160.932	2.50037	-6.9725	150.754	-14.7899	-25.0924	145.232	-36.1589	-37.7139	186.994	6.52446	-59.9875	169.219	-4.51758	-77.7955	147.359	-10.6691	-82.9751	183.597	-17.188	-61.4198	159.214	-28.5703	-57.8313	158.072	-24.9017	-22.4612	186.973	-35.3795	-47.0855	166.732	-42.4029	-33.3109	171.467	-27.5768	-6.14666	195.345	-47.7826	-33.8651	174.424	-44.7327	-22.8574	180.168	-30.6412	-4.70283	228.847	-18.4971	-19.1501	235.461	-10.2919	8.87437	220.154	9.17499	-5.283	
79	0.658333	190.041	11.8312	7.41213	161.514	-1.97225	-10.3788	151.223	-17.0655	-26.5009	148.739	-38.106	-37.5393	188.995	3.94695	-58.0276	166.97	-7.47851	-77.6853	144.419	-20.4681	-75.1231	186.177	-19.3429	-61.0083	161.481	-34.298	-56.6304	157.823	-29.3826	-26.4021	190.62	-35.1413	-48.0515	165.737	-39.9596	-34.4159	171.902	-33.4604	-7.69401	197.918	-46.6324	-35.644	175.824	-44.5567	-21.3058	182.879	-31.1376	-0.761767	228.633	-17.5061	-19.537	235.728	-12.2848	3.20237	217.739	10.7858	-10.4202	
80	0.666667	188.176	9.95124	3.29629	158.594	-2.16167	-8.74214	151.615	-19.3725	-25.2974	149.27	-38.4598	-38.2117	187.527	4.17555	-59.8993	165.648	-4.95684	-76.1025	144.887	-20.535	-70.2278	187.248	-18.8249	-61.6147	164.343	-33.7776	-59.9489	158.911	-31.6685	-27.5789	191.864	-34.9145	-48.5197	167.376	-45.9519	-34.8989	171.479	-34.9568	-9.1842	199.052	-49.2385	-35.3723	177.996	-50.3657	-20.8159	183.011	-31.6086	-0.86212	225.508	-16.4138	-21.0151	234.565	-10.2981	6.57984	217.532	10.2913	-6.87964	
81	0.675	187.302	8.27579	4.57147	161.424	-6.30571	-11.6486	151.999	-20.3579	-25.5762	151.903	-40.9544	-38.5636	187.02	3.0005	-59.9388	165.121	-9.6995	-76.341	147.983	-26.269	-64.3557	187.079	-20.2013	-61.9089	164.44	-37.6168	-58.0202	160.716	-36.3576	-27.6664	193.709	-36.8997	-49.1838	168.192	-46.6067	-33.1041	170.32	-37.7404	-11.4027	199.997	-50.0863	-36.134	177.808	-49.5706	-20.555	184.18	-31.0304	-4.11166	227.409	-19.0557	-22.1939	234.604	-10.2993	7.18694	217.276	9.49197	-11.312	
82	0.683333	185.49	8.0643	3.64333	159.365	-5.73954	-9.16889	149.528	-20.7462	-24.8313	148.65	-43.9057	-42.3338	185.49	1.30215	-61.8306	165.839	-11.9486	-75.1684	145.32	-25.5346	-61.3354	188.749	-18.0155	-60.5817	162.535	-36.7909	-58.5197	162.477	-34.3019	-24.6466	190.517	-40.7142	-50.492	169.931	-46.5109	-38.9653	172.534	-37.9689	-11.4162	202.165	-50.2791	-36.6128	180.577	-53.8411	-24.2506	184.183	-34.6916	-3.14471	227.971	-18.5365	-21.8327	233.639	-10.5649	6.53949	216.416	11.6966	-11.21	
83	0.691667	184.449	7.53995	5.0069	158.199	-9.39231	-13.7637	150.471	-24.6628	-26.9247	147.109	-45.7864	-41.4679	187.948	0.321327	-59.0536	165.222	-10.2873	-76.371	146.467	-31.4091	-59.7802	187.375	-19.9063	-62.319	164.218	-40.0882	-58.9039	161.309	-36.0182	-28.2562	192.611	-37.1837	-49.692	169.479	-48.536	-35.1266	173.508	-38.5624	-11.4798	201.599	-48.607	-37.2705	180.891	-53.1837	-25.1324	183.759	-32.5429	-5.12637	226.291	-15.0619	-17.5767	235.652	-10.0463	2.84254	216.394	10.4281	-6.27707	
84	0.7	182.043	7.21007	4.23095	160.55	-11.8908	-9.91101	150.538	-26.1043	-26.5915	149.907	-48.2862	-41.0922	182.999	3.07852	-63.3306	165.72	-12.6386	-76.8173	148.184	-32.5703	-65.5865	187.038	-22.0985	-62.5084	163.671	-37.7161	-60.0202	164.405	-38.3678	-26.6712	191.243	-43.0731	-51.4938	170.769	-46.9188	-38.0099	172.452	-37.661	-13.0225	203.082	-52.5644	-36.4195	182.276	-54.3949	-21.6052	188.106	-35.1674	-2.79024	224.825	-15.3805	-20.9359	233.353	-10.749	2.86691	215.113	7.87488	-8.96947	
85	0.708333	181.32	7.01888	5.90303	157.762	-11.7554	-8.62371	149.321	-30.1583	-31.3556	157.47	-50.5848	-41.945	185.585	0.811094	-58.6834	167.049	-10.1403	-79.2537	149.037	-32.0524	-72.7753	189.315	-20.5815	-60.4193	167.196	-42.5858	-59.5307	164.324	-38.278	-27.3971	192.817	-42.184	-50.1774	171.905	-51.8907	-34.6773	176.369	-38.3975	-11.4145	200.084	-53.1263	-36.9739	183.266	-56.5001	-22.7364	184.337	-36.2015	-4.73227	226.078	-13.125	-20.6342	232.625	-4.89619	5.62945	213.446	8.83508	-9.78345	
